<?xml version="1.0" encoding="iso-8859-1"?>
<!-- Generator: Adobe Illustrator 19.0.0, SVG Export Plug-In . SVG Version: 6.00 Build 0)  -->
<svg version="1.1" id="Layer_1" xmlns="http://www.w3.org/2000/svg" xmlns:xlink="http://www.w3.org/1999/xlink" x="0px" y="0px"
	 viewBox="0 0 290.626 290.626" style="enable-background:new 0 0 290.626 290.626;" xml:space="preserve">
<g>
	<g>
		<g>
			<path d="M281.25,281.251L281.25,281.251V206.25h4.688v-4.688l2.095-4.195l-6.783-3.389v-15.853h-9.375v11.166l-4.688-2.344
				V168.75h-9.375v13.509l-8.269-4.134h-15.169v-60.938h-0.473c-1.87-9.169-9.108-16.406-18.277-18.277V84.375h-9.375v14.536
				c-9.169,1.87-16.406,9.108-18.277,18.277H187.5v28.125h-9.375v-56.25h4.688v-9.375h-4.688v-18.75h-0.375
				c-2.062-14.339-13.411-25.687-27.75-27.75v-5.063h4.688V18.75H150V0h-9.375v18.75h-4.688v9.375h4.688v5.063
				c-14.339,2.067-25.688,13.411-27.75,27.75H112.5v18.75h-4.688v9.375h4.688v56.25h-9.375v-28.125h-0.473
				c-1.87-9.169-9.108-16.406-18.277-18.277V84.375H75v14.536c-9.169,1.87-16.406,9.108-18.277,18.277H56.25v60.938H41.081
				l-8.269,4.134v-13.51h-9.375v18.197l-4.688,2.344v-11.166H9.375v15.853l-6.783,3.394l2.095,4.191v4.688h4.688v75H0v9.375h290.625
				v-9.375H281.25z M271.875,206.25v9.375h-60.938v-9.375H271.875z M247.331,187.5l18.75,9.375h-55.144V187.5H247.331z
				 M210.938,107.813c6.103,0,11.259,3.933,13.2,9.375h-26.395C199.678,111.745,204.834,107.813,210.938,107.813z M196.875,126.562
				H225v14.063h-28.125V126.562z M196.875,150H225v28.125h-8.334l-19.791-9.234V150z M178.125,154.688h9.375v9.825l-21.056-9.825
				H178.125z M145.313,42.188c11.316,0,20.784,8.067,22.964,18.75h-45.928C124.529,50.255,133.997,42.188,145.313,42.188z
				 M121.875,70.313h46.875v9.375h-46.875V70.313z M121.875,89.063h46.875v56.25H150v-9.375h-9.375v9.375h-18.75V89.063z
				 M103.125,154.688h9.375h11.681l-21.056,9.825V154.688z M145.313,155.175l49.181,22.95H96.131L145.313,155.175z M103.125,187.5
				v18.75H89.063V187.5H103.125z M79.688,107.813c6.103,0,11.259,3.933,13.2,9.375H66.492
				C68.428,111.745,73.584,107.813,79.688,107.813z M65.625,126.562H93.75v14.063H65.625V126.562z M65.625,150H93.75v18.891
				l-19.791,9.234h-8.334V150z M32.813,281.25H18.75V225h14.063V281.25z M56.25,281.25H42.188V225H56.25V281.25z M79.688,281.25
				H65.625V225h14.063V281.25z M79.688,215.625H18.75v-9.375h60.938V215.625z M79.688,196.875H24.544l18.75-9.375h36.394V196.875z
				 M103.127,281.25H89.063v-65.625h14.063V281.25z M126.563,281.25H112.5v-65.625h14.063V281.25z M126.563,206.25H112.5V187.5
				h14.063V206.25z M154.688,281.25h-18.75v-65.625h18.75V281.25z M154.688,206.25h-18.75V187.5h18.75V206.25z M178.127,281.25
				h-14.063v-65.625h14.063V281.25z M178.127,206.25h-14.063V187.5h14.063V206.25z M201.563,281.25H187.5v-65.625h14.063V281.25z
				 M201.563,206.25H187.5V187.5h14.063V206.25z M225,281.25h-14.063V225h0.001H225V281.25z M248.438,281.25h-14.063V225h14.063
				V281.25z M271.876,281.25h-14.063V225h14.063V281.25z"/>
			<rect x="75" y="159.375" width="9.375" height="9.375"/>
			<rect x="206.25" y="159.375" width="9.375" height="9.375"/>
			<rect x="140.625" y="98.438" width="9.375" height="28.125"/>
			<rect x="126.563" y="98.438" width="9.375" height="28.125"/>
			<rect x="154.688" y="98.438" width="9.375" height="28.125"/>
			<rect x="140.625" y="164.063" width="9.375" height="9.375"/>
		</g>
	</g>
</g>
<g>
</g>
<g>
</g>
<g>
</g>
<g>
</g>
<g>
</g>
<g>
</g>
<g>
</g>
<g>
</g>
<g>
</g>
<g>
</g>
<g>
</g>
<g>
</g>
<g>
</g>
<g>
</g>
<g>
</g>
</svg>
